<svg id="logo" xmlns="http://www.w3.org/2000/svg" width="85.25" height="93" viewBox="0 0 85.25 93">
  <path d="M323.863,29.063a14.531,14.531,0,1,1,14.531-14.531A14.549,14.549,0,0,1,323.863,29.063Zm0-23.25a8.719,8.719,0,1,0,8.719,8.719A8.729,8.729,0,0,0,323.863,5.813Zm0,0" transform="translate(-253.145)" />
  <path d="M323.863,381.062a14.531,14.531,0,1,1,14.531-14.531A14.549,14.549,0,0,1,323.863,381.062Zm0-23.25a8.719,8.719,0,1,0,8.719,8.719A8.729,8.729,0,0,0,323.863,357.812Zm0,0" transform="translate(-253.145 -288.062)" />
  <path d="M14.531,205.062a14.531,14.531,0,1,1,14.531-14.531A14.549,14.549,0,0,1,14.531,205.062Zm0-23.25a8.719,8.719,0,1,0,8.719,8.719A8.729,8.729,0,0,0,14.531,181.813Zm0,0" transform="translate(0 -144.031)" />
  <path d="M122.6,121.873a2.9,2.9,0,0,1-1.442-5.429l35.956-20.5a2.905,2.905,0,0,1,2.875,5.05l-35.956,20.5a2.912,2.912,0,0,1-1.433.38Zm0,0" transform="translate(-97.949 -78.202)" />
  <path d="M158.568,297.864a2.881,2.881,0,0,1-1.434-.383l-35.956-20.5a2.905,2.905,0,0,1,2.876-5.049l35.956,20.5a2.908,2.908,0,0,1-1.441,5.433Zm0,0" transform="translate(-97.967 -222.224)" />
</svg>
