<svg id="moon" xmlns="http://www.w3.org/2000/svg" viewBox="0 0 33.067 33.067">
  <g id="Group_280" data-name="Group 280" transform="translate(16.499) rotate(45)">
    <path id="Path_1500" data-name="Path 1500" d="M22.861,13.948a.824.824,0,0,0-.689.15A8.79,8.79,0,0,1,19.5,15.656a8.35,8.35,0,0,1-3.026.539A8.8,8.8,0,0,1,7.67,7.387,9.234,9.234,0,0,1,8.149,4.48,8.045,8.045,0,0,1,9.588,1.9.765.765,0,0,0,9.468.825a.824.824,0,0,0-.689-.15A12.09,12.09,0,0,0,2.427,4.93,11.863,11.863,0,1,0,23.4,14.877.727.727,0,0,0,22.861,13.948Z" transform="translate(0 -0.652)" fill="#fff"/>
  </g>
</svg>
