<svg id="sun" xmlns="http://www.w3.org/2000/svg" width="23.726" height="23.726" viewBox="0 0 23.726 23.726">
  <path id="Path_1501" data-name="Path 1501" d="M85.368,76.957A5.983,5.983,0,0,0,81.163,75.2a5.853,5.853,0,0,0-4.205,1.757,5.963,5.963,0,0,0,4.205,10.168,5.853,5.853,0,0,0,4.205-1.757,5.983,5.983,0,0,0,1.757-4.205A5.853,5.853,0,0,0,85.368,76.957Z" transform="translate(-69.3 -69.3)" fill="#fb0"/>
  <path id="Path_1502" data-name="Path 1502" d="M141.616,4.048a.831.831,0,0,0,.816-.816V.816a.816.816,0,0,0-1.632,0V3.232A.831.831,0,0,0,141.616,4.048Z" transform="translate(-129.753)" fill="#fb0"/>
  <path id="Path_1503" data-name="Path 1503" d="M220.365,44.491l1.726-1.726a.8.8,0,0,0-1.13-1.13l-1.726,1.726a.8.8,0,1,0,1.13,1.13Z" transform="translate(-201.818 -38.152)" fill="#fb0"/>
  <path id="Path_1504" data-name="Path 1504" d="M254.032,140.8h-2.417a.816.816,0,1,0,0,1.632h2.417a.816.816,0,1,0,0-1.632Z" transform="translate(-231.123 -129.753)" fill="#fb0"/>
  <path id="Path_1505" data-name="Path 1505" d="M219.965,218.835a.8.8,0,0,0-1.13,1.13l1.726,1.726a.8.8,0,1,0,1.13-1.13Z" transform="translate(-201.449 -201.449)" fill="#fb0"/>
  <path id="Path_1506" data-name="Path 1506" d="M141.616,250.8a.831.831,0,0,0-.816.816v2.417a.816.816,0,1,0,1.632,0v-2.417A.831.831,0,0,0,141.616,250.8Z" transform="translate(-129.753 -231.123)" fill="#fb0"/>
  <path id="Path_1507" data-name="Path 1507" d="M42.961,218.835l-1.726,1.726a.8.8,0,1,0,1.13,1.13l1.726-1.726a.8.8,0,0,0-1.13-1.13Z" transform="translate(-37.783 -201.449)" fill="#fb0"/>
  <path id="Path_1508" data-name="Path 1508" d="M4.048,141.616a.831.831,0,0,0-.816-.816H.816a.816.816,0,0,0,0,1.632H3.232A.831.831,0,0,0,4.048,141.616Z" transform="translate(0 -129.753)" fill="#fb0"/>
  <path id="Path_1509" data-name="Path 1509" d="M42.961,44.491a.8.8,0,0,0,1.13-1.13l-1.726-1.726a.8.8,0,0,0-1.13,1.13Z" transform="translate(-37.783 -38.152)" fill="#fb0"/>
</svg>
